<svg width="128" height="125" viewBox="0 0 128 125" fill="none" xmlns="http://www.w3.org/2000/svg">
<path fill-rule="evenodd" clip-rule="evenodd" d="M99.6354 81.1428C100.13 81.6654 100.523 82.2861 100.79 82.9695C101.058 83.6529 101.196 84.3855 101.196 85.1253C101.196 85.8652 101.058 86.5978 100.79 87.2812C100.523 87.9646 100.13 88.5853 99.6354 89.1078L67.7604 122.858C67.2669 123.382 66.6807 123.797 66.0352 124.081C65.3898 124.364 64.6979 124.51 63.9991 124.51C63.3004 124.51 62.6085 124.364 61.963 124.081C61.3176 123.797 60.7314 123.382 60.2379 122.858L28.3629 89.1078C27.3653 88.0516 26.8049 86.6191 26.8049 85.1253C26.8049 83.6316 27.3653 82.1991 28.3629 81.1428C29.3604 80.0866 30.7134 79.4932 32.1241 79.4932C33.5349 79.4932 34.8878 80.0866 35.8854 81.1428L63.9991 110.922L92.1129 81.1428C92.6064 80.619 93.1926 80.2034 93.838 79.9198C94.4835 79.6363 95.1754 79.4903 95.8741 79.4903C96.5729 79.4903 97.2648 79.6363 97.9102 79.9198C98.5557 80.2034 99.1419 80.619 99.6354 81.1428Z" fill="black"/>
<path fill-rule="evenodd" clip-rule="evenodd" d="M64 34.5C65.409 34.5 66.7602 35.0926 67.7565 36.1475C68.7528 37.2024 69.3125 38.6332 69.3125 40.125V113.25C69.3125 114.742 68.7528 116.173 67.7565 117.227C66.7602 118.282 65.409 118.875 64 118.875C62.591 118.875 61.2398 118.282 60.2435 117.227C59.2472 116.173 58.6875 114.742 58.6875 113.25V40.125C58.6875 38.6332 59.2472 37.2024 60.2435 36.1475C61.2398 35.0926 62.591 34.5 64 34.5ZM0.25 6.375C0.25 4.88316 0.809709 3.45242 1.806 2.39753C2.80228 1.34263 4.15354 0.75 5.5625 0.75H122.438C123.846 0.75 125.198 1.34263 126.194 2.39753C127.19 3.45242 127.75 4.88316 127.75 6.375C127.75 7.86684 127.19 9.29758 126.194 10.3525C125.198 11.4074 123.846 12 122.438 12H5.5625C4.15354 12 2.80228 11.4074 1.806 10.3525C0.809709 9.29758 0.25 7.86684 0.25 6.375Z" fill="black"/>
</svg>
