<svg width="336" height="111" viewBox="0 0 336 111" fill="none" xmlns="http://www.w3.org/2000/svg">
<rect x="0.7" y="0.813281" width="334.6" height="108.677" rx="54.3" stroke="#B10000" stroke-width="1.4"/>
<path d="M74.617 48.048H80.119C82.569 48.048 84.466 48.699 85.81 50.001C87.168 51.303 87.847 53.137 87.847 55.503C87.847 57.883 87.168 59.731 85.81 61.047C84.466 62.349 82.569 63 80.119 63H74.617V48.048ZM79.951 60.795C83.395 60.795 85.117 59.031 85.117 55.503C85.117 52.003 83.395 50.253 79.951 50.253H77.326V60.795H79.951ZM95.2331 63.168C94.1551 63.168 93.2031 62.944 92.3771 62.496C91.5651 62.048 90.9351 61.411 90.4871 60.585C90.0531 59.745 89.8361 58.765 89.8361 57.645C89.8361 56.525 90.0531 55.552 90.4871 54.726C90.9351 53.886 91.5651 53.242 92.3771 52.794C93.2031 52.346 94.1551 52.122 95.2331 52.122C96.2971 52.122 97.2351 52.346 98.0471 52.794C98.8591 53.242 99.4821 53.886 99.9161 54.726C100.364 55.552 100.588 56.525 100.588 57.645C100.588 58.765 100.364 59.745 99.9161 60.585C99.4821 61.411 98.8591 62.048 98.0471 62.496C97.2351 62.944 96.2971 63.168 95.2331 63.168ZM95.2121 61.11C96.1081 61.11 96.7871 60.823 97.2491 60.249C97.7251 59.661 97.9631 58.793 97.9631 57.645C97.9631 56.511 97.7251 55.65 97.2491 55.062C96.7731 54.46 96.1011 54.159 95.2331 54.159C94.3511 54.159 93.6721 54.46 93.1961 55.062C92.7201 55.65 92.4821 56.511 92.4821 57.645C92.4821 58.793 92.7131 59.661 93.1751 60.249C93.6511 60.823 94.3301 61.11 95.2121 61.11ZM119.551 52.395L115.393 63H113.104L110.479 56.049L107.917 63H105.607L101.449 52.395H104.137L106.867 59.871L109.618 52.395H111.508L114.259 59.934L116.989 52.395H119.551ZM121.206 52.395H123.81V63H121.206V52.395ZM123.957 47.586V50.169H121.038V47.586H123.957ZM135.964 57.834H128.656C128.712 58.968 128.992 59.808 129.496 60.354C130.014 60.886 130.777 61.152 131.785 61.152C132.947 61.152 134.025 60.774 135.019 60.018L135.775 61.824C135.271 62.23 134.648 62.559 133.906 62.811C133.178 63.049 132.436 63.168 131.68 63.168C129.944 63.168 128.579 62.678 127.585 61.698C126.591 60.718 126.094 59.374 126.094 57.666C126.094 56.588 126.311 55.629 126.745 54.789C127.179 53.949 127.788 53.298 128.572 52.836C129.356 52.36 130.245 52.122 131.239 52.122C132.695 52.122 133.843 52.598 134.683 53.55C135.537 54.488 135.964 55.783 135.964 57.435V57.834ZM131.302 54.012C130.602 54.012 130.028 54.222 129.58 54.642C129.146 55.048 128.866 55.643 128.74 56.427H133.675C133.591 55.629 133.346 55.027 132.94 54.621C132.548 54.215 132.002 54.012 131.302 54.012ZM148.33 47.544V63H145.747V61.299C145.425 61.887 144.963 62.349 144.361 62.685C143.759 63.007 143.073 63.168 142.303 63.168C141.393 63.168 140.581 62.937 139.867 62.475C139.153 62.013 138.593 61.362 138.187 60.522C137.795 59.668 137.599 58.695 137.599 57.603C137.599 56.511 137.795 55.552 138.187 54.726C138.579 53.9 139.132 53.263 139.846 52.815C140.56 52.353 141.379 52.122 142.303 52.122C143.059 52.122 143.731 52.283 144.319 52.605C144.921 52.913 145.383 53.354 145.705 53.928V47.544H148.33ZM142.996 61.11C143.864 61.11 144.536 60.809 145.012 60.207C145.502 59.605 145.747 58.751 145.747 57.645C145.747 56.539 145.509 55.685 145.033 55.083C144.557 54.481 143.885 54.18 143.017 54.18C142.135 54.18 141.449 54.481 140.959 55.083C140.483 55.671 140.245 56.511 140.245 57.603C140.245 58.709 140.483 59.57 140.959 60.186C141.449 60.802 142.128 61.11 142.996 61.11ZM160.009 61.005V63H150.79V61.173L156.649 54.369H150.916V52.395H159.778V54.18L153.898 61.005H160.009ZM171.89 63.168C169.972 63.168 168.446 62.72 167.312 61.824L168.047 59.976C169.181 60.816 170.476 61.236 171.932 61.236C172.562 61.236 173.045 61.131 173.381 60.921C173.731 60.711 173.906 60.417 173.906 60.039C173.906 59.717 173.787 59.465 173.549 59.283C173.311 59.087 172.905 58.919 172.331 58.779L170.567 58.38C168.635 57.96 167.669 56.973 167.669 55.419C167.669 54.775 167.851 54.208 168.215 53.718C168.579 53.214 169.09 52.822 169.748 52.542C170.406 52.262 171.169 52.122 172.037 52.122C172.793 52.122 173.521 52.241 174.221 52.479C174.921 52.703 175.537 53.032 176.069 53.466L175.292 55.251C174.228 54.467 173.136 54.075 172.016 54.075C171.414 54.075 170.945 54.187 170.609 54.411C170.273 54.635 170.105 54.943 170.105 55.335C170.105 55.643 170.203 55.888 170.399 56.07C170.609 56.252 170.959 56.406 171.449 56.532L173.255 56.931C174.305 57.169 175.068 57.54 175.544 58.044C176.034 58.534 176.279 59.178 176.279 59.976C176.279 60.956 175.887 61.733 175.103 62.307C174.319 62.881 173.248 63.168 171.89 63.168ZM178.526 52.395H181.13V63H178.526V52.395ZM181.277 47.586V50.169H178.358V47.586H181.277ZM193.283 57.834H185.975C186.031 58.968 186.311 59.808 186.815 60.354C187.333 60.886 188.096 61.152 189.104 61.152C190.266 61.152 191.344 60.774 192.338 60.018L193.094 61.803C192.982 61.915 192.842 62.02 192.674 62.118C192.52 62.216 192.261 62.349 191.897 62.517C191.267 62.853 190.819 63.168 190.553 63.462C190.301 63.77 190.175 64.127 190.175 64.533C190.175 64.925 190.287 65.226 190.511 65.436C190.749 65.66 191.078 65.772 191.498 65.772C191.89 65.772 192.296 65.667 192.716 65.457L193.073 66.78C192.457 67.088 191.778 67.242 191.036 67.242C190.252 67.242 189.608 67.018 189.104 66.57C188.614 66.136 188.369 65.576 188.369 64.89C188.369 64.204 188.614 63.63 189.104 63.168H188.999C187.263 63.168 185.898 62.678 184.904 61.698C183.91 60.718 183.413 59.374 183.413 57.666C183.413 56.588 183.63 55.629 184.064 54.789C184.498 53.949 185.107 53.298 185.891 52.836C186.675 52.36 187.564 52.122 188.558 52.122C190.014 52.122 191.162 52.598 192.002 53.55C192.856 54.488 193.283 55.783 193.283 57.435V57.834ZM188.621 54.012C187.935 54.012 187.368 54.222 186.92 54.642C186.486 55.062 186.199 55.657 186.059 56.427H190.994C190.91 55.629 190.665 55.027 190.259 54.621C189.867 54.215 189.321 54.012 188.621 54.012ZM218.153 52.395L213.995 63H211.706L209.081 56.049L206.519 63H204.209L200.051 52.395H202.739L205.469 59.871L208.22 52.395H210.11L212.861 59.934L215.591 52.395H218.153ZM219.808 52.395H222.412V63H219.808V52.395ZM222.559 47.586V50.169H219.64V47.586H222.559ZM234.565 57.834H227.257C227.313 58.968 227.593 59.808 228.097 60.354C228.615 60.886 229.378 61.152 230.386 61.152C231.548 61.152 232.626 60.774 233.62 60.018L234.376 61.803C234.264 61.915 234.124 62.02 233.956 62.118C233.802 62.216 233.543 62.349 233.179 62.517C232.549 62.853 232.101 63.168 231.835 63.462C231.583 63.77 231.457 64.127 231.457 64.533C231.457 64.925 231.569 65.226 231.793 65.436C232.031 65.66 232.36 65.772 232.78 65.772C233.172 65.772 233.578 65.667 233.998 65.457L234.355 66.78C233.739 67.088 233.06 67.242 232.318 67.242C231.534 67.242 230.89 67.018 230.386 66.57C229.896 66.136 229.651 65.576 229.651 64.89C229.651 64.204 229.896 63.63 230.386 63.168H230.281C228.545 63.168 227.18 62.678 226.186 61.698C225.192 60.718 224.695 59.374 224.695 57.666C224.695 56.588 224.912 55.629 225.346 54.789C225.78 53.949 226.389 53.298 227.173 52.836C227.957 52.36 228.846 52.122 229.84 52.122C231.296 52.122 232.444 52.598 233.284 53.55C234.138 54.488 234.565 55.783 234.565 57.435V57.834ZM229.903 54.012C229.217 54.012 228.65 54.222 228.202 54.642C227.768 55.062 227.481 55.657 227.341 56.427H232.276C232.192 55.629 231.947 55.027 231.541 54.621C231.149 54.215 230.603 54.012 229.903 54.012ZM241.597 63.168C240.491 63.168 239.532 62.944 238.72 62.496C237.908 62.048 237.285 61.418 236.851 60.606C236.417 59.78 236.2 58.814 236.2 57.708C236.2 56.602 236.424 55.629 236.872 54.789C237.334 53.949 237.978 53.298 238.804 52.836C239.644 52.36 240.61 52.122 241.702 52.122C242.458 52.122 243.186 52.241 243.886 52.479C244.6 52.717 245.167 53.046 245.587 53.466L244.852 55.314C244.404 54.95 243.928 54.677 243.424 54.495C242.92 54.299 242.423 54.201 241.933 54.201C240.981 54.201 240.239 54.502 239.707 55.104C239.175 55.692 238.909 56.546 238.909 57.666C238.909 58.786 239.168 59.64 239.686 60.228C240.218 60.816 240.967 61.11 241.933 61.11C242.423 61.11 242.92 61.012 243.424 60.816C243.928 60.62 244.404 60.34 244.852 59.976L245.587 61.824C245.139 62.244 244.558 62.573 243.844 62.811C243.13 63.049 242.381 63.168 241.597 63.168ZM256.632 57.834H249.324C249.38 58.968 249.66 59.808 250.164 60.354C250.682 60.886 251.445 61.152 252.453 61.152C253.615 61.152 254.693 60.774 255.687 60.018L256.443 61.824C255.939 62.23 255.316 62.559 254.574 62.811C253.846 63.049 253.104 63.168 252.348 63.168C250.612 63.168 249.247 62.678 248.253 61.698C247.259 60.718 246.762 59.374 246.762 57.666C246.762 56.588 246.979 55.629 247.413 54.789C247.847 53.949 248.456 53.298 249.24 52.836C250.024 52.36 250.913 52.122 251.907 52.122C253.363 52.122 254.511 52.598 255.351 53.55C256.205 54.488 256.632 55.783 256.632 57.435V57.834ZM251.97 54.012C251.27 54.012 250.696 54.222 250.248 54.642C249.814 55.048 249.534 55.643 249.408 56.427H254.343C254.259 55.629 254.014 55.027 253.608 54.621C253.216 54.215 252.67 54.012 251.97 54.012ZM256.146 65.331C256.524 65.443 256.867 65.499 257.175 65.499C257.679 65.499 258.085 65.352 258.393 65.058C258.701 64.764 258.855 64.288 258.855 63.63V52.395H261.459V63.756C261.459 65.016 261.137 65.982 260.493 66.654C259.863 67.326 258.96 67.662 257.784 67.662C257.154 67.662 256.608 67.585 256.146 67.431V65.331ZM261.606 47.586V50.169H258.687V47.586H261.606ZM269.652 48.027L272.907 48.048L272.088 58.506H270.492L269.652 48.027ZM272.76 60.06V63H269.82V60.06H272.76Z" fill="#B10000"/>
</svg>
