<svg width="519" height="40" viewBox="0 0 519 40" fill="none" xmlns="http://www.w3.org/2000/svg">
<g filter="url(#filter0_d)">
<path d="M4.5 16C4.5 7.43959 11.4396 0.5 20 0.5H499C507.56 0.5 514.5 7.43959 514.5 16C514.5 24.5604 507.56 31.5 499 31.5H20C11.4396 31.5 4.5 24.5604 4.5 16Z" stroke="black"/>
</g>
<path d="M259.886 8.76L254.906 23H253.506L249.446 11.34L245.366 23H243.986L238.986 8.76H240.666L244.706 20.66L248.846 8.76L250.106 8.78L254.186 20.7L258.266 8.76H259.886ZM270.406 12.94L265.706 23.92C265.213 25.0667 264.593 25.9067 263.846 26.44C263.099 26.9733 262.179 27.34 261.086 27.54L260.746 26.28C261.693 26.0667 262.406 25.78 262.886 25.42C263.379 25.0733 263.786 24.5333 264.106 23.8L264.506 22.9L260.246 12.94H261.946L265.346 21.24L268.786 12.94H270.406ZM275.415 23.14C273.722 23.14 272.382 22.7067 271.395 21.84L271.935 20.64C272.482 21.0667 273.035 21.3733 273.595 21.56C274.155 21.7467 274.782 21.84 275.475 21.84C276.235 21.84 276.808 21.7133 277.195 21.46C277.595 21.1933 277.795 20.8133 277.795 20.32C277.795 19.92 277.662 19.6 277.395 19.36C277.128 19.12 276.688 18.9333 276.075 18.8L274.375 18.4C273.535 18.2133 272.882 17.88 272.415 17.4C271.962 16.92 271.735 16.3467 271.735 15.68C271.735 14.8 272.088 14.0867 272.795 13.54C273.502 12.98 274.435 12.7 275.595 12.7C276.302 12.7 276.968 12.8133 277.595 13.04C278.222 13.2667 278.748 13.5933 279.175 14.02L278.635 15.2C277.688 14.4133 276.675 14.02 275.595 14.02C274.875 14.02 274.315 14.16 273.915 14.44C273.528 14.7067 273.335 15.0867 273.335 15.58C273.335 15.9933 273.455 16.32 273.695 16.56C273.948 16.8 274.348 16.9867 274.895 17.12L276.595 17.54C277.528 17.7533 278.222 18.0867 278.675 18.54C279.128 18.98 279.355 19.56 279.355 20.28C279.355 21.1467 279.002 21.84 278.295 22.36C277.588 22.88 276.628 23.14 275.415 23.14ZM275.015 11.64L277.015 7.56H278.895L276.155 11.64H275.015ZM281.937 8.28H283.557V23H281.937V8.28ZM286.703 12.94H288.323V23H286.703V12.94ZM288.523 8.68V10.52H286.543V8.68H288.523ZM288.808 25.84C289.168 25.9467 289.495 26 289.788 26C290.908 26 291.468 25.3333 291.468 24V12.94H293.088V24.2C293.088 25.2533 292.822 26.0467 292.288 26.58C291.768 27.1267 291.048 27.4 290.128 27.4C289.688 27.4 289.248 27.34 288.808 27.22V25.84ZM293.268 8.68V10.52H291.288V8.68H293.268Z" fill="black"/>
<defs>
<filter id="filter0_d" x="0" y="0" width="519" height="40" filterUnits="userSpaceOnUse" color-interpolation-filters="sRGB">
<feFlood flood-opacity="0" result="BackgroundImageFix"/>
<feColorMatrix in="SourceAlpha" type="matrix" values="0 0 0 0 0 0 0 0 0 0 0 0 0 0 0 0 0 0 127 0"/>
<feOffset dy="4"/>
<feGaussianBlur stdDeviation="2"/>
<feColorMatrix type="matrix" values="0 0 0 0 0 0 0 0 0 0 0 0 0 0 0 0 0 0 0.25 0"/>
<feBlend mode="normal" in2="BackgroundImageFix" result="effect1_dropShadow"/>
<feBlend mode="normal" in="SourceGraphic" in2="effect1_dropShadow" result="shape"/>
</filter>
</defs>
</svg>
