<svg width="44" height="48" viewBox="0 0 44 48" fill="none" xmlns="http://www.w3.org/2000/svg">
<path fill-rule="evenodd" clip-rule="evenodd" d="M4.3166 0H38.8494C41.2334 0 43.166 2.14903 43.166 4.8V43.2C43.166 45.851 41.2334 48 38.8494 48H4.3166C1.93261 48 0 45.851 0 43.2V4.8C0 2.14903 1.93261 0 4.3166 0ZM4.3166 4.8V43.2H38.8494V4.8H4.3166ZM19.7119 24.0105H23.7413V38.4H28.0579V24.0105H32.3366V19.2105H28.0579V16.8C28.0579 15.4745 29.0242 14.4 30.2162 14.4H32.3745V9.6H30.2162C26.6402 9.6 23.7413 12.8236 23.7413 16.8V19.2105H19.7119V24.0105Z" fill="white"/>
</svg>
