<svg width="146" height="32" viewBox="0 0 146 32" fill="none" xmlns="http://www.w3.org/2000/svg">
<g filter="url(#filter0_d)">
<path d="M31.611 7.896H36.643C37.9123 7.896 38.8983 8.20767 39.601 8.831C40.315 9.443 40.672 10.2817 40.672 11.347C40.672 12.4123 40.3093 13.2567 39.584 13.88C38.87 14.492 37.8896 14.798 36.643 14.798H33.362V20H31.611V7.896ZM36.439 13.404C37.2776 13.404 37.9066 13.2283 38.326 12.877C38.7566 12.5257 38.972 12.0157 38.972 11.347C38.972 10.6897 38.7566 10.1853 38.326 9.834C37.9066 9.48267 37.2776 9.307 36.439 9.307H33.362V13.404H36.439ZM46.7484 11.228C47.0091 11.228 47.2811 11.2677 47.5644 11.347L47.5304 12.911C47.2244 12.7977 46.8901 12.741 46.5274 12.741C45.7454 12.741 45.1561 12.979 44.7594 13.455C44.3741 13.9197 44.1814 14.509 44.1814 15.223V20H42.4814V13.846C42.4814 12.9507 42.4361 12.146 42.3454 11.432H43.9434L44.0964 12.979C44.3231 12.4123 44.6744 11.9817 45.1504 11.687C45.6264 11.381 46.1591 11.228 46.7484 11.228ZM55.875 18.674V20H48.548V18.81L53.614 12.758H48.684V11.432H55.688V12.639L50.622 18.674H55.875ZM64.9486 15.75H58.8286C58.8853 17.756 59.7976 18.759 61.5656 18.759C62.5516 18.759 63.4526 18.436 64.2686 17.79L64.7956 19.014C64.4103 19.354 63.9173 19.626 63.3166 19.83C62.7273 20.0227 62.1323 20.119 61.5316 20.119C60.1603 20.119 59.0836 19.728 58.3016 18.946C57.5196 18.1527 57.1286 17.0703 57.1286 15.699C57.1286 14.8263 57.2986 14.05 57.6386 13.37C57.9899 12.69 58.4773 12.163 59.1006 11.789C59.7239 11.415 60.4323 11.228 61.2256 11.228C62.3816 11.228 63.2883 11.602 63.9456 12.35C64.6143 13.098 64.9486 14.135 64.9486 15.461V15.75ZM61.2596 12.503C60.6136 12.503 60.0866 12.6957 59.6786 13.081C59.2706 13.4663 59.0099 14.016 58.8966 14.73H63.4356C63.3676 14.0047 63.1466 13.455 62.7726 13.081C62.3986 12.6957 61.8943 12.503 61.2596 12.503ZM70.6419 20.119C69.7806 20.119 69.0269 19.9377 68.3809 19.575C67.7462 19.2123 67.2589 18.7023 66.9189 18.045C66.5789 17.3763 66.4089 16.6 66.4089 15.716C66.4089 14.832 66.5846 14.05 66.9359 13.37C67.2986 12.69 67.8029 12.163 68.4489 11.789C69.0949 11.415 69.8486 11.228 70.7099 11.228C71.3106 11.228 71.8886 11.33 72.4439 11.534C72.9992 11.7267 73.4469 11.993 73.7869 12.333L73.2599 13.574C72.4552 12.9393 71.6449 12.622 70.8289 12.622C70.0016 12.622 69.3556 12.894 68.8909 13.438C68.4262 13.9707 68.1939 14.7243 68.1939 15.699C68.1939 16.6737 68.4262 17.4273 68.8909 17.96C69.3556 18.4813 70.0016 18.742 70.8289 18.742C71.6676 18.742 72.4779 18.4247 73.2599 17.79L73.7869 19.031C73.4242 19.371 72.9596 19.6373 72.3929 19.83C71.8376 20.0227 71.2539 20.119 70.6419 20.119ZM82.3213 18.674V20H74.9943V18.81L80.0603 12.758H75.1303V11.432H82.1343V12.639L77.0683 18.674H82.3213ZM91.9539 11.432L87.9589 20.697C87.5169 21.7057 86.9616 22.4423 86.2929 22.907C85.6356 23.383 84.8196 23.7003 83.8449 23.859L83.4709 22.533C84.2756 22.3517 84.8819 22.1137 85.2899 21.819C85.7092 21.5357 86.0436 21.105 86.2929 20.527L86.5989 19.813L82.9949 11.432H84.8139L87.4999 18.062L90.2369 11.432H91.9539ZM95.7084 12.758V17.059C95.7084 17.6483 95.8331 18.0677 96.0824 18.317C96.3431 18.555 96.7001 18.674 97.1534 18.674C97.4481 18.674 97.7484 18.6287 98.0544 18.538V19.932C97.6804 20.0567 97.2554 20.119 96.7794 20.119C95.8954 20.119 95.2097 19.8697 94.7224 19.371C94.2351 18.8723 93.9914 18.147 93.9914 17.195V12.758H92.3254V11.432H93.9914V9.29L95.7084 8.695V11.432H98.0714V12.758H95.7084ZM107.494 11.432V20H105.794V18.538C105.545 19.048 105.171 19.439 104.672 19.711C104.185 19.983 103.613 20.119 102.955 20.119C102.196 20.119 101.527 19.9377 100.949 19.575C100.383 19.2123 99.9405 18.7023 99.6232 18.045C99.3058 17.3763 99.1472 16.6 99.1472 15.716C99.1472 14.832 99.3058 14.05 99.6232 13.37C99.9518 12.69 100.405 12.163 100.983 11.789C101.561 11.415 102.219 11.228 102.955 11.228C103.613 11.228 104.185 11.3697 104.672 11.653C105.16 11.925 105.534 12.316 105.794 12.826V11.432H107.494ZM103.363 18.759C104.134 18.759 104.729 18.4927 105.148 17.96C105.579 17.416 105.794 16.6567 105.794 15.682C105.794 14.696 105.579 13.9367 105.148 13.404C104.729 12.8713 104.128 12.605 103.346 12.605C102.576 12.605 101.969 12.8827 101.527 13.438C101.097 13.982 100.881 14.7413 100.881 15.716C100.881 16.6793 101.097 17.4273 101.527 17.96C101.969 18.4927 102.581 18.759 103.363 18.759ZM107.773 22.176C108.09 22.2667 108.368 22.312 108.606 22.312C109.546 22.312 110.017 21.7737 110.017 20.697V11.432H111.717V20.833C111.717 21.785 111.479 22.5103 111.003 23.009C110.527 23.5077 109.858 23.757 108.997 23.757C108.555 23.757 108.147 23.7003 107.773 23.587V22.176ZM111.853 7.692V9.494H109.864V7.692H111.853ZM116.035 17.96V20H113.995V17.96H116.035ZM120.119 17.96V20H118.079V17.96H120.119ZM124.203 17.96V20H122.163V17.96H124.203Z" fill="#8D0000"/>
</g>
<g filter="url(#filter1_d)">
<path d="M5.00349 16.3036L15.6106 16.3036L13.2803 18.6339C12.9588 18.9554 12.9588 19.4375 13.2803 19.7589C13.6017 20.0804 14.0838 20.0804 14.4053 19.7589L18.1017 16.0625C18.4231 15.7411 18.4231 15.2589 18.1017 14.9375L14.4053 11.2411C14.0838 10.9196 13.6017 10.9196 13.2803 11.2411C12.9588 11.5625 12.9588 12.0446 13.2803 12.3661L15.6106 14.6964L5.00349 14.6964C4.6017 14.6964 4.19992 15.0179 4.19992 15.5C4.19992 15.9821 4.6017 16.3036 5.00349 16.3036Z" fill="#8E0000"/>
</g>
<defs>
<filter id="filter0_d" x="27.6108" y="7.69202" width="100.592" height="24.167" filterUnits="userSpaceOnUse" color-interpolation-filters="sRGB">
<feFlood flood-opacity="0" result="BackgroundImageFix"/>
<feColorMatrix in="SourceAlpha" type="matrix" values="0 0 0 0 0 0 0 0 0 0 0 0 0 0 0 0 0 0 127 0"/>
<feOffset dy="4"/>
<feGaussianBlur stdDeviation="2"/>
<feColorMatrix type="matrix" values="0 0 0 0 0 0 0 0 0 0 0 0 0 0 0 0 0 0 0.25 0"/>
<feBlend mode="normal" in2="BackgroundImageFix" result="effect1_dropShadow"/>
<feBlend mode="normal" in="SourceGraphic" in2="effect1_dropShadow" result="shape"/>
</filter>
<filter id="filter1_d" x="0.199951" y="11" width="22.1429" height="17" filterUnits="userSpaceOnUse" color-interpolation-filters="sRGB">
<feFlood flood-opacity="0" result="BackgroundImageFix"/>
<feColorMatrix in="SourceAlpha" type="matrix" values="0 0 0 0 0 0 0 0 0 0 0 0 0 0 0 0 0 0 127 0"/>
<feOffset dy="4"/>
<feGaussianBlur stdDeviation="2"/>
<feColorMatrix type="matrix" values="0 0 0 0 0 0 0 0 0 0 0 0 0 0 0 0 0 0 0.25 0"/>
<feBlend mode="normal" in2="BackgroundImageFix" result="effect1_dropShadow"/>
<feBlend mode="normal" in="SourceGraphic" in2="effect1_dropShadow" result="shape"/>
</filter>
</defs>
</svg>
