<svg width="240" height="61" viewBox="0 0 240 61" fill="none" xmlns="http://www.w3.org/2000/svg">
<rect x="0.7" y="5.05254" width="238.6" height="54.5712" rx="27.2856" stroke="#870000" stroke-width="1.4"/>
<path d="M47.386 24.184H52.948C54.328 24.184 55.402 24.52 56.17 25.192C56.938 25.852 57.322 26.758 57.322 27.91C57.322 29.062 56.932 29.974 56.152 30.646C55.384 31.318 54.316 31.654 52.948 31.654H49.708V37H47.386V24.184ZM52.678 29.854C53.482 29.854 54.088 29.692 54.496 29.368C54.916 29.032 55.126 28.552 55.126 27.928C55.126 27.292 54.922 26.812 54.514 26.488C54.106 26.152 53.494 25.984 52.678 25.984H49.708V29.854H52.678ZM63.0003 37.144C62.0763 37.144 61.2603 36.952 60.5523 36.568C59.8563 36.184 59.3163 35.638 58.9323 34.93C58.5603 34.21 58.3743 33.37 58.3743 32.41C58.3743 31.45 58.5603 30.616 58.9323 29.908C59.3163 29.188 59.8563 28.636 60.5523 28.252C61.2603 27.868 62.0763 27.676 63.0003 27.676C63.9123 27.676 64.7163 27.868 65.4123 28.252C66.1083 28.636 66.6423 29.188 67.0143 29.908C67.3983 30.616 67.5903 31.45 67.5903 32.41C67.5903 33.37 67.3983 34.21 67.0143 34.93C66.6423 35.638 66.1083 36.184 65.4123 36.568C64.7163 36.952 63.9123 37.144 63.0003 37.144ZM62.9823 35.38C63.7503 35.38 64.3323 35.134 64.7283 34.642C65.1363 34.138 65.3403 33.394 65.3403 32.41C65.3403 31.438 65.1363 30.7 64.7283 30.196C64.3203 29.68 63.7443 29.422 63.0003 29.422C62.2443 29.422 61.6623 29.68 61.2543 30.196C60.8463 30.7 60.6423 31.438 60.6423 32.41C60.6423 33.394 60.8403 34.138 61.2363 34.642C61.6443 35.134 62.2263 35.38 62.9823 35.38ZM75.7406 37L71.7626 32.806V37H69.5306V23.752H71.7626V31.924L75.5066 27.928H78.2246L74.1386 32.266L78.5486 37H75.7406ZM88.0157 27.91V37H85.8017V35.542C85.5257 36.046 85.1297 36.442 84.6137 36.73C84.0977 37.006 83.5097 37.144 82.8497 37.144C82.0577 37.144 81.3557 36.952 80.7437 36.568C80.1317 36.184 79.6577 35.638 79.3217 34.93C78.9857 34.222 78.8177 33.4 78.8177 32.464C78.8177 31.528 78.9857 30.7 79.3217 29.98C79.6697 29.248 80.1497 28.684 80.7617 28.288C81.3737 27.88 82.0697 27.676 82.8497 27.676C83.5097 27.676 84.0977 27.82 84.6137 28.108C85.1297 28.384 85.5257 28.774 85.8017 29.278V27.91H88.0157ZM83.4617 35.38C84.2057 35.38 84.7817 35.122 85.1897 34.606C85.5977 34.09 85.8017 33.364 85.8017 32.428C85.8017 31.468 85.5977 30.73 85.1897 30.214C84.7817 29.698 84.1997 29.44 83.4437 29.44C82.6997 29.44 82.1177 29.71 81.6977 30.25C81.2897 30.778 81.0857 31.516 81.0857 32.464C81.0857 33.4 81.2897 34.12 81.6977 34.624C82.1177 35.128 82.7057 35.38 83.4617 35.38ZM98.0262 35.29V37H90.1242V35.434L95.1462 29.602H90.2322V27.91H97.8282V29.44L92.7882 35.29H98.0262ZM95.3442 23.788V26.002H92.8422V23.788H95.3442ZM119.352 27.91L115.788 37H113.826L111.576 31.042L109.38 37H107.4L103.836 27.91H106.14L108.48 34.318L110.838 27.91H112.458L114.816 34.372L117.156 27.91H119.352ZM123.978 37.144C122.334 37.144 121.026 36.76 120.054 35.992L120.684 34.408C121.656 35.128 122.766 35.488 124.014 35.488C124.554 35.488 124.968 35.398 125.256 35.218C125.556 35.038 125.706 34.786 125.706 34.462C125.706 34.186 125.604 33.97 125.4 33.814C125.196 33.646 124.848 33.502 124.356 33.382L122.844 33.04C121.188 32.68 120.36 31.834 120.36 30.502C120.36 29.95 120.516 29.464 120.828 29.044C121.14 28.612 121.578 28.276 122.142 28.036C122.706 27.796 123.36 27.676 124.104 27.676C124.752 27.676 125.376 27.778 125.976 27.982C126.576 28.174 127.104 28.456 127.56 28.828L126.894 30.358C125.982 29.686 125.046 29.35 124.086 29.35C123.57 29.35 123.168 29.446 122.88 29.638C122.592 29.83 122.448 30.094 122.448 30.43C122.448 30.694 122.532 30.904 122.7 31.06C122.88 31.216 123.18 31.348 123.6 31.456L125.148 31.798C126.048 32.002 126.702 32.32 127.11 32.752C127.53 33.172 127.74 33.724 127.74 34.408C127.74 35.248 127.404 35.914 126.732 36.406C126.06 36.898 125.142 37.144 123.978 37.144ZM137.138 35.29V37H129.236V35.434L134.258 29.602H129.344V27.91H136.94V29.44L131.9 35.29H137.138ZM147.498 27.91L143.268 37.612C142.788 38.74 142.176 39.562 141.432 40.078C140.688 40.594 139.77 40.936 138.678 41.104L138.174 39.376C139.026 39.184 139.662 38.938 140.082 38.638C140.514 38.35 140.862 37.918 141.126 37.342L141.414 36.676L137.634 27.91H139.992L142.602 34.444L145.266 27.91H147.498ZM151.874 37.144C150.23 37.144 148.922 36.76 147.95 35.992L148.58 34.408C149.552 35.128 150.662 35.488 151.91 35.488C152.45 35.488 152.864 35.398 153.152 35.218C153.452 35.038 153.602 34.786 153.602 34.462C153.602 34.186 153.5 33.97 153.296 33.814C153.092 33.646 152.744 33.502 152.252 33.382L150.74 33.04C149.084 32.68 148.256 31.834 148.256 30.502C148.256 29.95 148.412 29.464 148.724 29.044C149.036 28.612 149.474 28.276 150.038 28.036C150.602 27.796 151.256 27.676 152 27.676C152.648 27.676 153.272 27.778 153.872 27.982C154.472 28.174 155 28.456 155.456 28.828L154.79 30.358C153.878 29.686 152.942 29.35 151.982 29.35C151.466 29.35 151.064 29.446 150.776 29.638C150.488 29.83 150.344 30.094 150.344 30.43C150.344 30.694 150.428 30.904 150.596 31.06C150.776 31.216 151.076 31.348 151.496 31.456L153.044 31.798C153.944 32.002 154.598 32.32 155.006 32.752C155.426 33.172 155.636 33.724 155.636 34.408C155.636 35.248 155.3 35.914 154.628 36.406C153.956 36.898 153.038 37.144 151.874 37.144ZM160.336 29.602V33.67C160.336 34.738 160.834 35.272 161.83 35.272C162.106 35.272 162.406 35.224 162.73 35.128V36.91C162.334 37.054 161.854 37.126 161.29 37.126C160.258 37.126 159.466 36.838 158.914 36.262C158.362 35.686 158.086 34.858 158.086 33.778V29.602H156.34V27.91H158.086V25.696L160.336 24.94V27.91H162.748V29.602H160.336ZM170.504 37L166.526 32.806V37H164.294V23.752H166.526V31.924L170.27 27.928H172.988L168.902 32.266L173.312 37H170.504ZM174.208 27.91H176.44V37H174.208V27.91ZM176.566 23.788V26.002H174.064V23.788H176.566ZM186.858 32.572H180.594C180.642 33.544 180.882 34.264 181.314 34.732C181.758 35.188 182.412 35.416 183.276 35.416C184.272 35.416 185.196 35.092 186.048 34.444L186.696 35.992C186.264 36.34 185.73 36.622 185.094 36.838C184.47 37.042 183.834 37.144 183.186 37.144C181.698 37.144 180.528 36.724 179.676 35.884C178.824 35.044 178.398 33.892 178.398 32.428C178.398 31.504 178.584 30.682 178.956 29.962C179.328 29.242 179.85 28.684 180.522 28.288C181.194 27.88 181.956 27.676 182.808 27.676C184.056 27.676 185.04 28.084 185.76 28.9C186.492 29.704 186.858 30.814 186.858 32.23V32.572ZM182.862 29.296C182.262 29.296 181.77 29.476 181.386 29.836C181.014 30.184 180.774 30.694 180.666 31.366H184.896C184.824 30.682 184.614 30.166 184.266 29.818C183.93 29.47 183.462 29.296 182.862 29.296Z" fill="#870000"/>
</svg>
