<svg width="55" height="53" viewBox="0 0 55 53" fill="none" xmlns="http://www.w3.org/2000/svg">
<path d="M52.2533 29.055C51.9535 29.0567 51.6563 29.002 51.3788 28.8942C51.1013 28.7864 50.8489 28.6275 50.636 28.4267L27.1977 6.13167L3.75937 28.4267C3.32363 28.7816 2.76313 28.9671 2.18986 28.946C1.6166 28.925 1.07281 28.6989 0.667146 28.3131C0.261486 27.9272 0.0238414 27.4099 0.00169873 26.8646C-0.0204439 26.3193 0.174548 25.7862 0.547708 25.3717L27.1977 0L53.8705 25.3717C54.1839 25.6758 54.3962 26.0611 54.4807 26.4794C54.5652 26.8977 54.5182 27.3303 54.3457 27.7234C54.1731 28.1164 53.8826 28.4523 53.5104 28.6891C53.1383 28.926 52.701 29.0532 52.2533 29.055Z" fill="#BC0000"/>
<path d="M52.2533 52.888C51.9535 52.8897 51.6563 52.835 51.3788 52.7272C51.1013 52.6194 50.8489 52.4605 50.636 52.2597L27.1977 29.9647L3.75937 52.2597C3.32363 52.6146 2.76313 52.8001 2.18986 52.779C1.6166 52.758 1.07281 52.5319 0.667146 52.1461C0.261486 51.7602 0.0238414 51.2429 0.00169873 50.6976C-0.0204439 50.1523 0.174548 49.6192 0.547708 49.2047L27.1977 23.833L53.8705 49.2047C54.1839 49.5088 54.3962 49.8941 54.4807 50.3124C54.5652 50.7307 54.5182 51.1633 54.3457 51.5564C54.1731 51.9494 53.8826 52.2853 53.5104 52.5221C53.1383 52.759 52.701 52.8862 52.2533 52.888Z" fill="#BC0000"/>
</svg>
