<svg width="805" height="705" viewBox="0 0 805 705" fill="none" xmlns="http://www.w3.org/2000/svg">
<g filter="url(#filter0_dii)">
<path d="M114.185 216.066C82.0503 191.843 82.0504 152.571 114.185 128.348L239.698 33.7383C264.417 15.1055 304.495 15.1055 329.214 33.7383L690.321 305.935C722.456 330.158 722.456 369.431 690.321 393.653L564.808 488.263C540.089 506.896 500.012 506.896 475.293 488.263L114.185 216.066Z" fill="black"/>
</g>
<rect width="250.628" height="542.694" rx="44.8392" transform="matrix(0.798547 -0.601932 0.798547 0.601932 85.436 159.731)" fill="white"/>
<g filter="url(#filter1_d)">
<path d="M462.003 350.723C460.437 351.903 458.756 352.853 456.961 353.573C455.185 354.278 453.428 354.696 451.69 354.825L450.258 351.846C451.996 351.659 453.581 351.299 455.013 350.766C456.445 350.205 457.801 349.442 459.081 348.477C460.494 347.412 461.334 346.404 461.601 345.454C461.888 344.49 461.582 343.669 460.685 342.993C459.921 342.417 458.976 342.252 457.849 342.496C456.722 342.712 455.156 343.302 453.151 344.267C450.038 345.778 447.46 346.642 445.417 346.858C443.374 347.074 441.512 346.548 439.831 345.282C438.628 344.375 437.883 343.324 437.597 342.129C437.311 340.934 437.492 339.689 438.141 338.394C438.81 337.084 439.927 335.839 441.493 334.658C442.925 333.579 444.5 332.722 446.219 332.089C447.938 331.427 449.59 331.074 451.175 331.031L452.636 333.989C449.37 334.263 446.639 335.227 444.443 336.882C443.125 337.876 442.362 338.869 442.152 339.862C441.922 340.841 442.276 341.683 443.211 342.388C444.013 342.993 444.959 343.202 446.047 343.015C447.155 342.813 448.711 342.23 450.716 341.266C452.817 340.287 454.641 339.574 456.188 339.128C457.715 338.667 459.138 338.502 460.456 338.631C461.754 338.746 462.957 339.222 464.065 340.056C465.287 340.978 466.032 342.028 466.299 343.209C466.548 344.375 466.309 345.606 465.583 346.901C464.857 348.197 463.664 349.471 462.003 350.723ZM481.707 304.734L494.884 325.549L491.876 327.816L472.082 320.626L481.564 335.589L478.556 337.857L450.971 327.903L454.723 325.074L475.033 332.696L465.121 317.236L467.757 315.25L488.267 322.893L478.155 307.412L481.707 304.734ZM484.575 302.572L498.21 292.295L501.132 294.497L491.106 302.054L496.749 306.308L506.173 299.204L509.095 301.407L499.671 308.51L505.657 313.023L515.683 305.466L518.605 307.668L504.97 317.946L484.575 302.572ZM501.611 289.731L515.246 279.453L518.167 281.656L508.142 289.213L513.785 293.467L523.209 286.363L526.131 288.565L516.707 295.669L522.693 300.182L532.719 292.624L535.641 294.827L522.006 305.105L501.611 289.731ZM526.495 275.551L519.849 280.561L516.813 278.272L533.856 265.425L536.893 267.714L530.219 272.745L547.577 285.829L543.854 288.636L526.495 275.551Z" fill="black"/>
<path d="M465.462 401.901L461.566 404.837L452.17 401.685C451.311 401.383 450.518 401.318 449.793 401.49C449.067 401.663 448.322 402.037 447.558 402.613L443.863 405.399L452.342 411.79L448.676 414.554L428.28 399.18L437.017 392.595C439.328 390.853 441.591 389.91 443.806 389.766C446.021 389.622 448.074 390.263 449.965 391.688C451.32 392.71 452.113 393.854 452.342 395.121C452.571 396.359 452.228 397.625 451.311 398.921C452.762 398.201 454.471 398.18 456.438 398.856L465.462 401.901ZM445.553 399.806C446.947 398.755 447.721 397.784 447.874 396.891C448.026 395.999 447.578 395.157 446.527 394.365C445.496 393.588 444.398 393.264 443.233 393.393C442.068 393.494 440.779 394.077 439.366 395.142L434.754 398.619L440.941 403.283L445.553 399.806ZM448.393 384.019L462.028 373.741L464.95 375.944L454.924 383.501L460.568 387.755L469.992 380.651L472.914 382.853L463.489 389.957L469.476 394.47L479.502 386.913L482.424 389.115L468.789 399.393L448.393 384.019ZM484.135 357.078L495.449 379.296L492.442 381.564L462.966 373.035L466.804 370.141L489.348 376.9L480.382 359.907L484.135 357.078ZM515.247 364.762C513.28 366.244 511.141 367.223 508.831 367.698C506.52 368.145 504.181 368.08 501.813 367.504C499.445 366.899 497.191 365.791 495.053 364.179C492.933 362.581 491.481 360.897 490.698 359.126C489.896 357.341 489.801 355.585 490.412 353.858C491.042 352.116 492.35 350.497 494.336 349C496.322 347.502 498.461 346.524 500.753 346.063C503.064 345.588 505.393 345.66 507.742 346.279C510.091 346.869 512.325 347.963 514.445 349.561C516.584 351.173 518.054 352.872 518.856 354.657C519.639 356.427 519.735 358.183 519.143 359.925C518.532 361.653 517.233 363.265 515.247 364.762ZM512.297 362.538C514.187 361.113 515.009 359.515 514.76 357.744C514.512 355.974 513.175 354.174 510.75 352.346C508.344 350.533 505.976 349.539 503.646 349.367C501.297 349.179 499.177 349.798 497.287 351.224C495.396 352.649 494.566 354.239 494.795 355.995C495.024 357.752 496.351 359.544 498.776 361.372C501.202 363.2 503.589 364.208 505.938 364.395C508.286 364.582 510.406 363.963 512.297 362.538ZM508.061 339.043L511.756 336.257L529.115 349.342L538.654 342.152L541.69 344.441L528.456 354.416L508.061 339.043ZM552.325 336.813C549.518 338.929 546.673 339.994 543.789 340.008C540.906 339.994 538.07 338.936 535.282 336.834L523.136 327.679L526.774 324.937L539.12 334.243C540.877 335.568 542.624 336.266 544.362 336.338C546.081 336.395 547.752 335.812 549.375 334.589C550.96 333.394 551.705 332.142 551.609 330.832C551.533 329.507 550.626 328.19 548.888 326.88L536.542 317.574L540.18 314.832L552.325 323.987C555.094 326.074 556.479 328.212 556.479 330.4C556.479 332.588 555.094 334.726 552.325 336.813ZM552.275 310.293L545.629 315.302L542.593 313.013L559.637 300.166L562.673 302.455L555.999 307.486L573.358 320.57L569.634 323.377L552.275 310.293ZM562.19 298.241L565.885 295.456L586.281 310.829L582.585 313.615L562.19 298.241ZM600.007 300.871C598.04 302.354 595.901 303.333 593.591 303.808C591.28 304.254 588.941 304.189 586.573 303.613C584.205 303.009 581.951 301.9 579.813 300.288C577.693 298.69 576.241 297.006 575.459 295.236C574.656 293.451 574.561 291.694 575.172 289.967C575.802 288.225 577.11 286.606 579.096 285.109C581.082 283.612 583.221 282.633 585.513 282.172C587.824 281.697 590.153 281.769 592.502 282.388C594.851 282.978 597.085 284.072 599.205 285.67C601.344 287.282 602.814 288.981 603.617 290.766C604.4 292.537 604.495 294.293 603.903 296.034C603.292 297.762 601.993 299.374 600.007 300.871ZM597.057 298.647C598.947 297.222 599.769 295.624 599.52 293.854C599.272 292.083 597.935 290.284 595.51 288.456C593.104 286.642 590.736 285.649 588.406 285.476C586.057 285.289 583.937 285.908 582.047 287.333C580.156 288.758 579.326 290.349 579.555 292.105C579.784 293.861 581.111 295.653 583.536 297.481C585.962 299.309 588.349 300.317 590.698 300.504C593.047 300.691 595.166 300.072 597.057 298.647ZM610.008 262.197L630.403 277.57L627.653 279.643L602.36 277.16L616.654 287.935L613.216 290.526L592.821 275.152L595.571 273.079L620.807 275.562L606.542 264.809L610.008 262.197Z" fill="#AB0000"/>
</g>
<g clip-path="url(#clip0)" filter="url(#filter2_d)">
<path d="M331.736 285.863C333.215 287.827 335.755 288.425 337.395 287.189L340.793 284.629L348.404 294.73C350.332 297.289 353.616 298.09 355.716 296.507C357.823 294.919 357.958 291.556 356.023 288.989L348.405 278.879L354.336 274.41L361.947 284.511C363.876 287.07 367.159 287.871 369.259 286.288C371.366 284.701 371.501 281.337 369.566 278.77L361.955 268.669L365.352 266.108C366.992 264.873 367.117 262.266 365.638 260.303L340.653 227.147L306.745 252.699L331.736 285.863ZM318.712 216.742L317.735 208.928C317.677 208.473 317.312 208.077 316.91 208.051C316.514 208.033 316.241 208.397 316.3 208.853L317.322 216.974C314.416 217.573 311.606 218.809 309.101 220.696C306.596 222.584 304.634 224.944 303.257 227.573L295.738 224.36C295.316 224.178 294.885 224.332 294.799 224.726C294.707 225.111 294.981 225.562 295.415 225.761L302.657 228.854C299.775 235.393 300.263 243.299 304.463 249.802L338.371 224.25C333.258 218.422 325.786 215.779 318.712 216.742ZM310.003 236.787C309.632 237.067 309.169 237.208 308.674 237.193C308.178 237.177 307.672 237.006 307.219 236.701C306.767 236.396 306.387 235.97 306.13 235.477C305.873 234.985 305.748 234.448 305.773 233.935C305.798 233.421 305.97 232.955 306.268 232.593C306.567 232.232 306.978 231.992 307.45 231.904C307.921 231.817 308.432 231.885 308.918 232.101C309.404 232.317 309.843 232.67 310.179 233.116C310.629 233.715 310.862 234.438 310.829 235.126C310.796 235.814 310.499 236.411 310.003 236.787ZM324.543 225.831C324.172 226.11 323.71 226.251 323.214 226.236C322.719 226.221 322.212 226.049 321.76 225.744C321.307 225.439 320.928 225.013 320.67 224.521C320.413 224.028 320.288 223.491 320.313 222.978C320.338 222.465 320.51 221.998 320.809 221.636C321.107 221.275 321.518 221.035 321.99 220.948C322.461 220.86 322.973 220.928 323.458 221.144C323.944 221.36 324.383 221.713 324.72 222.16C325.169 222.759 325.403 223.481 325.37 224.169C325.337 224.857 325.04 225.454 324.543 225.831ZM346.496 222.534C344.389 224.121 344.255 227.485 346.189 230.052L359.87 248.207C361.798 250.766 365.082 251.567 367.182 249.984C369.289 248.397 369.424 245.033 367.489 242.466L353.802 224.302C351.874 221.73 348.61 220.94 346.496 222.534ZM300.545 257.16C298.438 258.748 298.304 262.111 300.238 264.679L313.919 282.834C315.848 285.393 319.131 286.193 321.231 284.611C323.338 283.023 323.473 279.66 321.538 277.092L307.851 258.929C305.917 256.362 302.646 255.577 300.545 257.16Z" fill="black"/>
</g>
<g clip-path="url(#clip1)">
<g filter="url(#filter3_d)">
<path d="M421.598 236.261C419.34 236.196 417.043 235.744 414.793 234.924C412.401 234.13 410.032 233.191 407.698 232.113C402.398 229.818 397.308 226.779 392.585 223.091C387.05 218.844 382.451 214.241 378.658 209.207C374.421 203.585 371.735 197.916 370.605 192.301C369.643 187.973 369.769 183.655 370.971 179.794C372.082 175.981 374.22 172.741 377.158 170.417C378.206 169.628 379.471 168.961 380.93 168.408C382.01 168.053 383.406 167.726 385.118 167.337C387.314 166.864 388.557 166.652 388.946 166.535C390.215 166.236 391.154 165.814 391.783 165.34C392.261 164.98 392.798 164.289 393.353 163.433C393.647 162.926 394.217 161.991 394.929 160.516C395.7 159.143 396.281 158.028 396.76 157.162C397.569 155.937 398.366 154.769 399.182 153.868C400.15 152.802 401.255 151.881 402.472 151.123C404.567 149.789 406.894 148.825 409.38 148.263C413.52 147.445 417.702 147.888 421.984 149.771C421.643 150.925 421.416 152.131 421.306 153.372C421.02 156.014 421.152 158.764 421.698 161.516C422.502 165.233 424.182 168.837 426.575 171.979C429.542 175.817 432.939 178.607 436.79 180.331C439.634 181.616 442.599 182.314 445.501 182.383C447.001 182.435 448.193 182.35 449.224 182.12C449.876 183.733 450.471 185.322 450.989 186.952C452.139 190.616 452.98 194.326 453.504 198.033C453.911 201.258 454.164 203.698 454.237 205.394C454.325 208.001 454.154 210.171 453.675 211.955C453.164 213.939 452.064 215.623 450.527 216.78C449.523 217.612 448.369 218.245 447.109 218.654C445.986 218.953 444.85 219.215 443.687 219.414C442.454 219.589 441.251 219.859 440.085 220.222C437.288 221.231 434.905 223.019 433.155 225.422C432.467 226.446 431.855 227.496 431.319 228.624C430.549 230.19 430.04 231.234 429.698 231.774C428.998 232.828 428.166 233.782 427.219 234.606C425.671 235.772 423.828 236.327 421.588 236.327L421.598 236.261ZM392.208 154.801C391.101 157.541 389.56 159.514 387.515 160.791C385.464 158.695 383.975 156.092 382.816 152.887C381.838 150.169 381.311 147.372 381.261 144.631C381.212 141.742 381.707 138.971 382.717 136.474C383.766 133.777 385.143 131.708 386.861 130.262C388.926 132.519 390.496 135.086 391.701 138.232C392.735 141.036 393.332 143.922 393.467 146.768C393.567 149.622 393.118 152.367 392.148 154.842L392.208 154.801Z" fill="black"/>
</g>
</g>
<defs>
<filter id="filter0_dii" x="0.405579" y="8.55387" width="803.695" height="695.46" filterUnits="userSpaceOnUse" color-interpolation-filters="sRGB">
<feFlood flood-opacity="0" result="BackgroundImageFix"/>
<feColorMatrix in="SourceAlpha" type="matrix" values="0 0 0 0 0 0 0 0 0 0 0 0 0 0 0 0 0 0 127 0"/>
<feOffset dy="112.098"/>
<feGaussianBlur stdDeviation="44.8392"/>
<feColorMatrix type="matrix" values="0 0 0 0 0.241667 0 0 0 0 0.2675 0 0 0 0 0.5 0 0 0 0.25 0"/>
<feBlend mode="normal" in2="BackgroundImageFix" result="effect1_dropShadow"/>
<feBlend mode="normal" in="SourceGraphic" in2="effect1_dropShadow" result="shape"/>
<feColorMatrix in="SourceAlpha" type="matrix" values="0 0 0 0 0 0 0 0 0 0 0 0 0 0 0 0 0 0 127 0" result="hardAlpha"/>
<feOffset dy="2.24196"/>
<feGaussianBlur stdDeviation="11.2098"/>
<feComposite in2="hardAlpha" operator="arithmetic" k2="-1" k3="1"/>
<feColorMatrix type="matrix" values="0 0 0 0 1 0 0 0 0 1 0 0 0 0 1 0 0 0 1 0"/>
<feBlend mode="normal" in2="shape" result="effect2_innerShadow"/>
<feColorMatrix in="SourceAlpha" type="matrix" values="0 0 0 0 0 0 0 0 0 0 0 0 0 0 0 0 0 0 127 0" result="hardAlpha"/>
<feOffset dx="-2.24196" dy="-11.2098"/>
<feGaussianBlur stdDeviation="11.2098"/>
<feComposite in2="hardAlpha" operator="arithmetic" k2="-1" k3="1"/>
<feColorMatrix type="matrix" values="0 0 0 0 0.399479 0 0 0 0 0.514406 0 0 0 0 0.7375 0 0 0 0.5 0"/>
<feBlend mode="normal" in2="effect2_innerShadow" result="effect3_innerShadow"/>
</filter>
<filter id="filter1_d" x="424.28" y="262.197" width="210.123" height="160.357" filterUnits="userSpaceOnUse" color-interpolation-filters="sRGB">
<feFlood flood-opacity="0" result="BackgroundImageFix"/>
<feColorMatrix in="SourceAlpha" type="matrix" values="0 0 0 0 0 0 0 0 0 0 0 0 0 0 0 0 0 0 127 0"/>
<feOffset dy="4"/>
<feGaussianBlur stdDeviation="2"/>
<feColorMatrix type="matrix" values="0 0 0 0 0 0 0 0 0 0 0 0 0 0 0 0 0 0 0.25 0"/>
<feBlend mode="normal" in2="BackgroundImageFix" result="effect1_dropShadow"/>
<feBlend mode="normal" in="SourceGraphic" in2="effect1_dropShadow" result="shape"/>
</filter>
<filter id="filter2_d" x="262" y="184" width="144.183" height="147.748" filterUnits="userSpaceOnUse" color-interpolation-filters="sRGB">
<feFlood flood-opacity="0" result="BackgroundImageFix"/>
<feColorMatrix in="SourceAlpha" type="matrix" values="0 0 0 0 0 0 0 0 0 0 0 0 0 0 0 0 0 0 127 0"/>
<feOffset dy="4"/>
<feGaussianBlur stdDeviation="2"/>
<feColorMatrix type="matrix" values="0 0 0 0 0 0 0 0 0 0 0 0 0 0 0 0 0 0 0.25 0"/>
<feBlend mode="normal" in2="BackgroundImageFix" result="effect1_dropShadow"/>
<feBlend mode="normal" in="SourceGraphic" in2="effect1_dropShadow" result="shape"/>
</filter>
<filter id="filter3_d" x="365.966" y="130.262" width="92.2933" height="114.065" filterUnits="userSpaceOnUse" color-interpolation-filters="sRGB">
<feFlood flood-opacity="0" result="BackgroundImageFix"/>
<feColorMatrix in="SourceAlpha" type="matrix" values="0 0 0 0 0 0 0 0 0 0 0 0 0 0 0 0 0 0 127 0"/>
<feOffset dy="4"/>
<feGaussianBlur stdDeviation="2"/>
<feColorMatrix type="matrix" values="0 0 0 0 0 0 0 0 0 0 0 0 0 0 0 0 0 0 0.25 0"/>
<feBlend mode="normal" in2="BackgroundImageFix" result="effect1_dropShadow"/>
<feBlend mode="normal" in="SourceGraphic" in2="effect1_dropShadow" result="shape"/>
</filter>
<clipPath id="clip0">
<rect width="89.4589" height="107.571" fill="white" transform="translate(266 237.838) rotate(-37)"/>
</clipPath>
<clipPath id="clip1">
<rect width="89.46" height="107.57" fill="white" transform="translate(337 167.839) rotate(-37)"/>
</clipPath>
</defs>
</svg>
