<svg width="56" height="48" viewBox="0 0 56 48" fill="none" xmlns="http://www.w3.org/2000/svg">
<path fill-rule="evenodd" clip-rule="evenodd" d="M53.3775 42.3845C55.0981 38.8714 55.8332 33.2066 55.8332 23.9916C55.8332 14.8133 55.105 9.18145 53.3661 5.57409C51.6234 1.82809 49.5565 0.639095 45.4547 0.353702C42.6544 0.127567 35.6947 0 28.1417 0C20.5724 0 13.6096 0.127519 10.7884 0.355475C6.70945 0.639775 4.64214 1.8314 2.88411 5.5878C1.17048 9.18271 0.436768 14.8421 0.436768 24.0252C0.436768 33.1561 1.17403 38.844 2.89917 42.4271C4.63434 46.1351 6.66869 47.3124 10.7823 47.6566C13.7388 47.8628 21.0956 48 28.1417 48C35.1719 48 42.5251 47.8627 45.4547 47.6589C49.6061 47.3125 51.6401 46.1333 53.3775 42.3845ZM45.1375 6.34174C47.7032 6.52039 48.1791 6.79515 48.9924 8.54891C50.1764 10.992 50.797 15.7731 50.797 24.0252C50.797 32.2148 50.1731 37.0223 48.9979 39.423C48.1818 41.1822 47.7093 41.4561 45.1317 41.6713C42.3589 41.8641 35.077 42 28.1415 42C21.1904 42 13.9048 41.8641 11.1055 41.6691C8.55973 41.4559 8.0804 41.1785 7.2824 39.4734C6.09925 37.0156 5.47261 32.1811 5.47261 23.9916C5.47261 15.807 6.09592 10.9992 7.27274 8.53026C8.08316 6.79881 8.56586 6.52058 11.1057 6.34347C13.7949 6.12632 20.6921 6 28.1415 6C35.5749 6 42.4689 6.12636 45.1375 6.34174ZM23.0989 15L35.689 24L23.0989 33V15Z" fill="white"/>
</svg>
