<svg width="489" height="578" viewBox="0 0 489 578" fill="none" xmlns="http://www.w3.org/2000/svg">
<path d="M479 257.5C479 394.685 373.529 505 244.5 505C115.471 505 10 394.685 10 257.5C10 120.315 115.471 10 244.5 10C373.529 10 479 120.315 479 257.5Z" stroke="white" stroke-width="20"/>
<path d="M280.188 344.052C269.785 343.718 238.92 333.307 232.784 328.503L280.188 344.052Z" fill="#FAE5E3"/>
<path d="M284.469 395.365C303.661 423.78 365.719 432.214 376.307 436.275C393.673 443.231 396.627 462.038 396.884 472.282C397.626 501.47 400.865 551.54 391.176 578" fill="#FAE5E3"/>
<path d="M284.469 395.365C272.825 373.179 280.188 344.052 280.188 344.052C280.188 344.052 302.748 345.188 311.795 340.293C329.19 332.368 349.852 303.377 349.638 261.869C349.145 224.489 341.711 187.58 327.763 153.257C315.177 118.69 237.079 86.3801 178.245 146.756C178.245 146.756 146.523 177.549 164.946 228.726" fill="#FAE5E3"/>
<path d="M73.5327 578C65.1564 549.494 68.4527 474.54 69.6656 463.963C70.8786 453.385 75.559 431.926 100.346 425.394C111.305 422.47 179.929 410.686 193.856 390.243" fill="#FAE5E3"/>
<path d="M197.224 312.955C197.224 312.955 174.178 299.058 164.988 270.083C155.799 241.107 164.946 228.726 164.946 228.726C172.323 217.042 201.676 214.178 201.676 249.427" fill="#FAE5E3"/>
<path d="M197.224 312.955C198.979 349.78 199.421 366.677 193.856 390.243L197.224 312.955Z" fill="#FAE5E3"/>
<path d="M284.469 395.365C303.661 423.78 365.719 432.214 376.307 436.275C393.673 443.231 396.627 462.038 396.884 472.282C397.626 501.47 400.865 551.54 391.176 578H73.5327C65.1564 549.494 68.4527 474.54 69.6656 463.963C70.8786 453.385 75.559 431.926 100.346 425.394C111.305 422.47 179.929 410.686 193.856 390.243C199.421 366.677 198.979 349.78 197.224 312.955C197.224 312.955 174.178 299.058 164.988 270.083C155.799 241.107 164.946 228.726 164.946 228.726C146.523 177.549 178.245 146.756 178.245 146.756C237.079 86.3801 315.177 118.69 327.763 153.257C341.711 187.58 349.145 224.489 349.638 261.869C349.852 303.377 329.19 332.368 311.795 340.293C302.748 345.188 280.188 344.052 280.188 344.052C280.188 344.052 272.825 373.179 284.469 395.365Z" fill="#FAE5E3"/>
<path opacity="0.4" d="M279.93 343.153C278.544 353.454 276.397 368.592 279.93 380.702C266.832 377.417 229.858 350.388 229.858 328.439C246.035 335.121 262.812 340.051 279.93 343.153Z" fill="#050504"/>
<path d="M182 238C176.333 239.594 172.468 248.451 176.972 258" stroke="#050504" stroke-width="3" stroke-linecap="round"/>
<path d="M70.2971 566.647C61.8547 538.174 65.177 463.305 66.3995 452.739C67.622 442.173 72.3394 420.739 97.3216 414.215C106.845 411.696 159.257 403.788 182.521 388.569C184.21 380.968 184.182 371.673 182.825 361.468C185.681 367.589 208.359 372.361 235.908 372.361C263.552 372.361 286.291 367.557 289.021 361.405C287.23 371.658 287.123 381.729 288.951 391.986C312.674 414.849 365.69 421.369 375.461 425.083C392.965 432.031 395.942 450.817 396.201 461.049C396.949 490.204 400.213 540.217 390.448 566.647H70.2971Z" fill="#EB8682"/>
<path d="M280.453 352.697C287.443 354.771 289.296 357.36 289.296 360.16C289.296 360.58 289.203 360.996 289.021 361.405M193.711 352.697C186.692 354.756 182.521 357.344 182.521 360.16C182.521 360.602 182.624 361.038 182.825 361.468M182.622 360.008C182.693 360.497 182.76 360.983 182.825 361.468M289.08 361.068C289.06 361.18 289.041 361.293 289.021 361.405M182.825 361.468C184.182 371.673 184.21 380.968 182.521 388.569C159.257 403.788 106.845 411.696 97.3216 414.215C72.3394 420.739 67.622 442.173 66.3995 452.739C65.177 463.305 61.8547 538.174 70.2971 566.647H390.448C400.213 540.217 396.949 490.204 396.201 461.049C395.942 450.817 392.965 432.031 375.461 425.083C365.69 421.369 312.674 414.849 288.951 391.986C287.123 381.729 287.23 371.658 289.021 361.405M182.825 361.468C185.681 367.589 208.359 372.361 235.908 372.361C263.552 372.361 286.291 367.557 289.021 361.405" stroke="#050504" stroke-width="3" stroke-linecap="round" stroke-linejoin="round"/>
<mask id="mask0" mask-type="alpha" maskUnits="userSpaceOnUse" x="67" y="368" width="328" height="196">
<path d="M185.322 389.259C186.707 383.025 186.988 375.841 186.413 368.117C186.714 368.263 187.022 368.405 187.336 368.544C190.543 369.962 194.715 371.18 199.552 372.181C209.247 374.185 221.996 375.388 235.908 375.388C249.868 375.388 262.657 374.177 272.365 372.16C277.208 371.154 281.381 369.927 284.581 368.499C284.785 368.408 284.987 368.315 285.187 368.221C284.396 376.315 284.667 384.37 286.123 392.544C286.238 393.189 286.549 393.776 287.008 394.219C299.425 406.185 319.215 413.677 336.689 418.638C345.492 421.138 353.843 423.03 360.564 424.522L362.056 424.853C368.122 426.198 372.423 427.151 374.466 427.924C390.155 434.165 393.071 451.08 393.325 461.131C393.423 464.94 393.562 469.082 393.71 473.465L393.71 473.467C394.132 485.986 394.62 500.478 394.391 514.819C394.095 533.285 392.606 551.03 388.442 563.619H72.458C68.8453 549.5 67.669 525.457 67.6004 502.968C67.5286 479.415 68.6651 458.203 69.2549 453.105C69.8441 448.013 71.2571 440.519 75.3892 433.567C79.4685 426.704 86.2833 420.217 98.0143 417.153L98.0226 417.151C99.7862 416.685 103.136 416.016 107.679 415.109C108.996 414.846 110.413 414.563 111.921 414.259C118.549 412.923 126.763 411.214 135.417 409.104C152.603 404.914 171.956 399.045 184.04 391.141C184.687 390.717 185.148 390.04 185.322 389.259Z" fill="#EB8682"/>
</mask>
<g mask="url(#mask0)">
<path d="M67.4565 407.032C67.1167 406.939 66.8489 406.865 66.6562 406.811V385.176C66.8033 385.224 66.9745 385.28 67.1692 385.344C67.9374 385.594 69.0722 385.96 70.5395 386.427C73.4742 387.36 77.7394 388.693 83.0626 390.292C93.7089 393.49 108.589 397.753 125.524 402.015C159.383 410.536 201.502 419.065 234.43 419.044C266.237 419.024 306.919 410.494 339.62 401.983C355.977 397.726 370.349 393.47 380.631 390.279C385.773 388.683 389.892 387.353 392.727 386.422C394.144 385.957 395.24 385.591 395.982 385.341C396.158 385.282 396.315 385.229 396.45 385.183V405.306C396.264 405.363 396.006 405.44 395.679 405.538C394.939 405.759 393.845 406.084 392.43 406.497C389.6 407.323 385.486 408.504 380.35 409.921C370.077 412.756 355.72 416.536 339.38 420.316C306.69 427.88 266.106 435.437 234.43 435.452C201.625 435.467 159.6 428.287 125.752 421.094C108.833 417.499 93.9665 413.902 83.33 411.205C78.0118 409.856 73.7514 408.732 70.8208 407.945C69.3556 407.552 68.2228 407.243 67.4565 407.032ZM66.6562 505.181V483.531C66.8089 483.572 66.9886 483.62 67.1946 483.675C67.9627 483.881 69.0973 484.182 70.5645 484.566C73.4989 485.333 77.7637 486.429 83.0866 487.744C93.7321 490.374 108.611 493.88 125.545 497.384C159.403 504.392 201.514 511.402 234.43 511.381C266.222 511.361 306.893 504.729 339.594 498.111C355.949 494.801 370.319 491.492 380.6 489.01C385.741 487.77 389.86 486.736 392.694 486.012C394.111 485.65 395.207 485.366 395.949 485.172C396.14 485.122 396.307 485.078 396.45 485.04V505.184C396.267 505.225 396.021 505.281 395.713 505.35C394.973 505.516 393.879 505.759 392.464 506.069C389.633 506.689 385.518 507.574 380.381 508.637C370.108 510.762 355.749 513.597 339.407 516.432C306.716 522.104 266.121 527.774 234.43 527.789C201.613 527.805 159.579 522.134 125.731 516.455C108.81 513.616 93.9426 510.775 83.3053 508.645C77.9867 507.58 73.7258 506.692 70.7949 506.071C69.3294 505.76 68.1965 505.516 67.4301 505.35C67.1056 505.279 66.8468 505.223 66.6562 505.181ZM67.3886 541.57C67.0871 541.531 66.8423 541.499 66.6562 541.474V519.806C66.8172 519.836 67.0104 519.871 67.2349 519.912C68.0027 520.051 69.137 520.254 70.604 520.514C73.5378 521.032 77.8019 521.773 83.1241 522.662C93.7683 524.44 108.645 526.81 125.577 529.178C159.434 533.914 201.531 538.649 234.43 538.628C266.207 538.608 306.866 533.873 339.566 529.147C355.919 526.784 370.288 524.421 380.568 522.65C385.708 521.764 389.827 521.026 392.66 520.51C394.077 520.252 395.173 520.049 395.914 519.91C396.121 519.872 396.3 519.838 396.45 519.81V539.969C396.271 539.996 396.037 540.031 395.749 540.074C395.008 540.184 393.914 540.347 392.498 540.553C389.667 540.966 385.552 541.556 380.414 542.264C370.14 543.681 355.779 545.57 339.435 547.459C306.743 551.239 266.136 555.021 234.43 555.036C201.596 555.052 159.548 551.648 125.698 548.238C108.775 546.534 93.9056 544.828 83.2668 543.549C77.9474 542.909 73.6859 542.376 70.7543 542.003C69.2886 541.816 68.1553 541.67 67.3886 541.57ZM396.042 340.075C396.193 340.002 396.329 339.935 396.451 339.876V359.944C396.262 360.029 395.983 360.155 395.618 360.319C394.879 360.651 393.785 361.138 392.37 361.758C389.541 362.997 385.427 364.769 380.292 366.895C370.021 371.147 355.666 376.817 339.329 382.488C306.639 393.835 266.077 405.162 234.43 405.177C201.654 405.193 159.65 394.241 125.803 383.264C108.887 377.779 94.0228 372.292 83.3879 368.177C78.0706 366.119 73.811 364.404 70.8811 363.204C69.4162 362.604 68.2837 362.133 67.5178 361.812C67.1404 361.653 66.852 361.531 66.6566 361.449V339.865C66.7902 339.928 66.942 339.999 67.1117 340.079C67.8801 340.44 69.0151 340.97 70.4828 341.643C73.4181 342.991 77.6839 344.916 83.0079 347.225C93.6556 351.843 108.538 358.001 125.476 364.157C159.334 376.463 201.474 388.79 234.431 388.769C266.267 388.749 306.97 376.42 339.671 364.124C356.03 357.973 370.404 351.823 380.688 347.211C385.83 344.905 389.95 342.983 392.785 341.637C394.203 340.965 395.299 340.436 396.042 340.075ZM66.6562 415.451C66.8033 415.499 66.9745 415.555 67.1692 415.618C67.9374 415.868 69.0722 416.235 70.5395 416.701C73.4742 417.634 77.7394 418.967 83.0626 420.566C93.7089 423.764 108.589 428.027 125.524 432.29C159.383 440.811 201.502 449.339 234.43 449.318C266.237 449.298 306.919 440.769 339.62 432.258C355.977 428.001 370.349 423.745 380.631 420.553C385.773 418.957 389.892 417.628 392.727 416.696C394.144 416.231 395.24 415.865 395.982 415.616C396.158 415.556 396.315 415.504 396.45 415.458V435.581C396.264 435.637 396.006 435.715 395.679 435.812C394.939 436.034 393.845 436.358 392.43 436.771C389.6 437.598 385.486 438.779 380.35 440.196C370.077 443.03 355.72 446.81 339.38 450.591C306.69 458.154 266.106 465.711 234.43 465.726C201.625 465.742 159.6 458.562 125.752 451.369C108.833 447.773 93.9665 444.177 83.33 441.479C78.0118 440.13 73.7514 439.006 70.8208 438.22C69.3556 437.826 68.2228 437.517 67.4565 437.307C67.1167 437.213 66.8489 437.139 66.6562 437.086V415.451ZM396.45 447.246V467.369C396.264 467.425 396.006 467.503 395.679 467.601C394.939 467.822 393.845 468.146 392.43 468.56C389.6 469.386 385.486 470.567 380.35 471.984C370.077 474.819 355.72 478.598 339.38 482.379C306.69 489.942 266.106 497.499 234.43 497.514C201.625 497.53 159.6 490.35 125.752 483.157C108.833 479.561 93.9665 475.965 83.33 473.267C78.0118 471.919 73.7514 470.795 70.8208 470.008C69.3556 469.615 68.2228 469.306 67.4565 469.095C67.1167 469.001 66.8489 468.927 66.6562 468.874V447.239C66.8033 447.287 66.9745 447.343 67.1692 447.406C67.9374 447.656 69.0722 448.023 70.5395 448.49C73.4742 449.423 77.7394 450.755 83.0626 452.354C93.7089 455.552 108.589 459.816 125.524 464.078C159.383 472.599 201.502 481.128 234.43 481.107C266.237 481.086 306.919 472.557 339.62 464.046C355.977 459.789 370.349 455.533 380.631 452.341C385.773 450.746 389.892 449.416 392.727 448.485C394.144 448.019 395.24 447.653 395.982 447.404C396.158 447.345 396.315 447.292 396.45 447.246Z" fill="black" stroke="black"/>
</g>
<path d="M194.041 365.278L195.763 353C192.177 353.241 184 356.756 184 360.222C184 363.689 190.694 365.037 194.041 365.278Z" fill="#050504"/>
<path d="M275.807 366L277.959 353C281.545 353.241 288 356.756 288 360.222C288 363.689 279.154 365.759 275.807 366Z" fill="#050504"/>
<path d="M333.851 174.707C319.558 183.303 264.795 189.108 248.261 187.129C240.523 186.198 225.562 184.677 216.516 183.613C216.239 183.625 215.97 183.725 215.747 183.9C215.523 184.076 215.354 184.318 215.261 184.596C215.168 184.874 215.156 185.175 215.226 185.461C215.296 185.746 215.445 186.003 215.653 186.198C254.301 213.271 204.603 275.822 202.015 241.127C196.977 212.592 173.471 222.931 170.687 224.718C167.334 226.944 164.525 229.981 162.49 233.58C159.971 237.848 158.649 260.668 171.564 284.034C171.714 284.33 171.763 284.671 171.705 285.002C171.647 285.332 171.484 285.631 171.244 285.85L166.596 289.72C166.447 289.834 166.279 289.916 166.1 289.961C165.921 290.005 165.736 290.012 165.555 289.98C165.374 289.949 165.2 289.88 165.045 289.777C164.889 289.674 164.754 289.539 164.647 289.38C102.396 188.576 147.084 168.076 153.764 165.683C153.999 165.586 154.204 165.424 154.358 165.213C154.513 165.002 154.61 164.751 154.641 164.486C157.271 136.261 173.93 103.723 211.451 97.5051C231.602 93.9456 251.894 97.7562 263.987 102.822H264.085C278.823 107.874 290.04 98.9673 303.206 85.5415C303.387 85.3575 303.601 85.2148 303.836 85.1222C304.071 85.0295 304.322 84.9888 304.572 85.0026C304.822 85.0165 305.067 85.0845 305.292 85.2026C305.516 85.3207 305.716 85.4863 305.878 85.6892C311.57 92.8821 311.278 97.9925 309.288 102.409C309.202 102.66 309.183 102.931 309.231 103.194C309.28 103.456 309.394 103.699 309.563 103.898C309.731 104.097 309.947 104.243 310.188 104.321C310.429 104.4 310.685 104.407 310.93 104.344C322.885 99.7058 349.076 105.215 359.069 97.7562C359.259 97.6329 359.475 97.5599 359.697 97.5435C359.92 97.5271 360.143 97.5676 360.347 97.6617C360.552 97.7558 360.732 97.9007 360.873 98.0843C361.014 98.2678 361.111 98.4845 361.156 98.7162C365.345 133.115 353.572 163.187 333.851 174.707Z" fill="#050504" stroke="#050504" stroke-width="3" stroke-linecap="round" stroke-linejoin="bevel"/>
<path d="M302.395 241.469C302.076 240.705 301.198 240.344 300.433 240.663C299.669 240.982 299.308 241.861 299.627 242.625L302.395 241.469ZM303.855 280.642C303.105 280.994 302.782 281.887 303.134 282.637C303.486 283.387 304.379 283.71 305.129 283.358L303.855 280.642ZM236.83 208.553C236.312 209.199 236.415 210.143 237.061 210.662C237.707 211.18 238.651 211.077 239.17 210.431L236.83 208.553ZM269.228 195.357L269.493 193.881L269.482 193.879L269.228 195.357ZM273.377 198.078C274.149 198.379 275.018 197.997 275.319 197.225C275.62 196.453 275.238 195.584 274.466 195.283L273.377 198.078ZM306.335 199.012C305.738 199.586 305.719 200.536 306.292 201.133C306.866 201.731 307.816 201.75 308.413 201.176L306.335 199.012ZM336.248 192.982L336.904 191.633L336.902 191.632L336.248 192.982ZM339.069 196.519C339.719 197.033 340.662 196.923 341.176 196.273C341.69 195.624 341.58 194.68 340.931 194.166L339.069 196.519ZM301.011 242.047C299.627 242.625 299.627 242.625 299.627 242.625C299.627 242.626 299.627 242.626 299.627 242.626C299.628 242.627 299.628 242.628 299.629 242.63C299.631 242.634 299.633 242.639 299.636 242.646C299.641 242.66 299.65 242.68 299.661 242.708C299.684 242.763 299.718 242.844 299.763 242.951C299.852 243.165 299.982 243.479 300.148 243.88C300.48 244.682 300.955 245.831 301.524 247.222C302.664 250.003 304.182 253.744 305.7 257.59C307.219 261.438 308.733 265.377 309.865 268.559C310.432 270.152 310.897 271.538 311.219 272.62C311.38 273.162 311.501 273.612 311.579 273.964C311.619 274.14 311.645 274.28 311.661 274.389C311.669 274.443 311.674 274.484 311.677 274.515C311.68 274.546 311.68 274.559 311.68 274.557H314.68C314.68 274.172 314.6 273.726 314.507 273.309C314.407 272.864 314.266 272.343 314.095 271.765C313.751 270.609 313.266 269.166 312.692 267.553C311.542 264.323 310.014 260.346 308.491 256.488C306.966 252.627 305.443 248.873 304.301 246.084C303.729 244.69 303.253 243.537 302.92 242.732C302.753 242.329 302.622 242.014 302.533 241.799C302.488 241.692 302.454 241.609 302.431 241.554C302.419 241.526 302.41 241.505 302.404 241.491C302.401 241.484 302.399 241.478 302.398 241.475C302.397 241.473 302.396 241.471 302.396 241.47C302.396 241.47 302.396 241.47 302.395 241.469C302.395 241.469 302.395 241.469 301.011 242.047ZM311.68 274.557C311.68 274.794 311.491 275.314 310.736 276.107C310.033 276.845 309.052 277.599 308.007 278.291C306.973 278.977 305.931 279.567 305.143 279.987C304.751 280.197 304.424 280.362 304.198 280.475C304.085 280.531 303.997 280.574 303.938 280.602C303.909 280.616 303.887 280.627 303.873 280.633C303.866 280.637 303.861 280.639 303.858 280.641C303.856 280.641 303.855 280.642 303.855 280.642C303.855 280.642 303.855 280.642 303.855 280.642C303.855 280.642 303.855 280.642 303.855 280.642C303.855 280.642 303.855 280.642 304.492 282C305.129 283.358 305.129 283.358 305.129 283.358C305.13 283.358 305.13 283.358 305.13 283.357C305.131 283.357 305.131 283.357 305.132 283.356C305.134 283.356 305.136 283.355 305.139 283.353C305.144 283.351 305.151 283.347 305.161 283.343C305.18 283.334 305.206 283.321 305.241 283.305C305.309 283.272 305.408 283.224 305.533 283.162C305.781 283.038 306.134 282.859 306.556 282.634C307.396 282.185 308.526 281.546 309.665 280.792C310.792 280.044 311.983 279.148 312.909 278.175C313.783 277.257 314.68 276.004 314.68 274.557H311.68ZM239.17 210.431C247.113 200.539 258.552 195.045 268.974 196.836L269.482 193.879C257.677 191.851 245.235 198.086 236.83 208.553L239.17 210.431ZM268.963 196.834C270.467 197.104 271.944 197.52 273.377 198.078L274.466 195.283C272.853 194.655 271.189 194.185 269.493 193.881L268.963 196.834ZM308.413 201.176C316.813 193.109 327.266 190.294 335.594 194.331L336.902 191.632C327.056 186.858 315.283 190.418 306.335 199.012L308.413 201.176ZM335.592 194.331C336.82 194.928 337.985 195.661 339.069 196.519L340.931 194.166C339.679 193.175 338.329 192.326 336.904 191.633L335.592 194.331Z" fill="#050504"/>
<path d="M276.518 299.265C280.771 309.702 295.489 312.209 302.196 311.026" stroke="#050504" stroke-width="3" stroke-miterlimit="10" stroke-linecap="round"/>
<path d="M268.641 248.332C273.085 248.332 276.687 243.148 276.687 236.754C276.687 230.359 273.085 225.176 268.641 225.176C264.197 225.176 260.595 230.359 260.595 236.754C260.595 243.148 264.197 248.332 268.641 248.332Z" fill="#050504"/>
<path d="M273.934 232.574C271.78 223.973 261.009 222.635 253.22 229.792" stroke="#050504" stroke-width="3" stroke-linecap="round"/>
<path d="M331.582 244.152C336.025 244.152 339.628 238.968 339.628 232.574C339.628 226.179 336.025 220.995 331.582 220.995C327.138 220.995 323.536 226.179 323.536 232.574C323.536 238.968 327.138 244.152 331.582 244.152Z" fill="#050504"/>
<path d="M336.874 228.394C334.72 219.793 323.95 218.454 316.161 225.612" stroke="#050504" stroke-width="3" stroke-linecap="round"/>
</svg>
