<svg width="240" height="57" viewBox="0 0 240 57" fill="none" xmlns="http://www.w3.org/2000/svg">
<rect x="0.7" y="0.972949" width="238.6" height="54.5717" rx="27.2858" stroke="#7A0000" stroke-width="1.4"/>
<path d="M68.386 22.184H73.948C75.328 22.184 76.402 22.52 77.17 23.192C77.938 23.852 78.322 24.758 78.322 25.91C78.322 27.062 77.932 27.974 77.152 28.646C76.384 29.318 75.316 29.654 73.948 29.654H70.708V35H68.386V22.184ZM73.678 27.854C74.482 27.854 75.088 27.692 75.496 27.368C75.916 27.032 76.126 26.552 76.126 25.928C76.126 25.292 75.922 24.812 75.514 24.488C75.106 24.152 74.494 23.984 73.678 23.984H70.708V27.854H73.678ZM84.0003 35.144C83.0763 35.144 82.2603 34.952 81.5523 34.568C80.8563 34.184 80.3163 33.638 79.9323 32.93C79.5603 32.21 79.3743 31.37 79.3743 30.41C79.3743 29.45 79.5603 28.616 79.9323 27.908C80.3163 27.188 80.8563 26.636 81.5523 26.252C82.2603 25.868 83.0763 25.676 84.0003 25.676C84.9123 25.676 85.7163 25.868 86.4123 26.252C87.1083 26.636 87.6423 27.188 88.0143 27.908C88.3983 28.616 88.5903 29.45 88.5903 30.41C88.5903 31.37 88.3983 32.21 88.0143 32.93C87.6423 33.638 87.1083 34.184 86.4123 34.568C85.7163 34.952 84.9123 35.144 84.0003 35.144ZM83.9823 33.38C84.7503 33.38 85.3323 33.134 85.7283 32.642C86.1363 32.138 86.3403 31.394 86.3403 30.41C86.3403 29.438 86.1363 28.7 85.7283 28.196C85.3203 27.68 84.7443 27.422 84.0003 27.422C83.2443 27.422 82.6623 27.68 82.2543 28.196C81.8463 28.7 81.6423 29.438 81.6423 30.41C81.6423 31.394 81.8403 32.138 82.2363 32.642C82.6443 33.134 83.2263 33.38 83.9823 33.38ZM95.7146 25.676C96.5066 25.676 97.2026 25.874 97.8026 26.27C98.4146 26.654 98.8886 27.2 99.2246 27.908C99.5606 28.616 99.7286 29.438 99.7286 30.374C99.7286 31.31 99.5546 32.144 99.2066 32.876C98.8706 33.596 98.3966 34.154 97.7846 34.55C97.1846 34.946 96.4946 35.144 95.7146 35.144C95.0426 35.144 94.4426 35 93.9146 34.712C93.3986 34.424 93.0086 34.022 92.7446 33.506V35H90.5306V21.752H92.7626V27.278C93.0386 26.774 93.4346 26.384 93.9506 26.108C94.4666 25.82 95.0546 25.676 95.7146 25.676ZM95.1206 33.38C95.8646 33.38 96.4406 33.116 96.8486 32.588C97.2566 32.06 97.4606 31.322 97.4606 30.374C97.4606 29.438 97.2566 28.718 96.8486 28.214C96.4406 27.698 95.8586 27.44 95.1026 27.44C94.3466 27.44 93.7646 27.698 93.3566 28.214C92.9486 28.73 92.7446 29.462 92.7446 30.41C92.7446 31.37 92.9486 32.108 93.3566 32.624C93.7646 33.128 94.3526 33.38 95.1206 33.38ZM101.693 25.91H103.925V35H101.693V25.91ZM104.051 21.788V24.002H101.549V21.788H104.051ZM114.342 30.572H108.078C108.126 31.544 108.366 32.264 108.798 32.732C109.242 33.188 109.896 33.416 110.76 33.416C111.756 33.416 112.68 33.092 113.532 32.444L114.18 33.992C113.748 34.34 113.214 34.622 112.578 34.838C111.954 35.042 111.318 35.144 110.67 35.144C109.182 35.144 108.012 34.724 107.16 33.884C106.308 33.044 105.882 31.892 105.882 30.428C105.882 29.504 106.068 28.682 106.44 27.962C106.812 27.242 107.334 26.684 108.006 26.288C108.678 25.88 109.44 25.676 110.292 25.676C111.54 25.676 112.524 26.084 113.244 26.9C113.976 27.704 114.342 28.814 114.342 30.23V30.572ZM110.346 27.296C109.746 27.296 109.254 27.476 108.87 27.836C108.498 28.184 108.258 28.694 108.15 29.366H112.38C112.308 28.682 112.098 28.166 111.75 27.818C111.414 27.47 110.946 27.296 110.346 27.296ZM121.143 25.694C121.491 25.694 121.791 25.742 122.043 25.838L122.025 27.89C121.641 27.734 121.245 27.656 120.837 27.656C120.069 27.656 119.481 27.878 119.073 28.322C118.677 28.766 118.479 29.354 118.479 30.086V35H116.247V28.484C116.247 27.524 116.199 26.666 116.103 25.91H118.209L118.389 27.512C118.617 26.924 118.977 26.474 119.469 26.162C119.961 25.85 120.519 25.694 121.143 25.694ZM130.979 33.29V35H123.077V33.434L128.099 27.602H123.185V25.91H130.781V27.44L125.741 33.29H130.979Z" fill="#7A0000"/>
<path d="M180.983 21.3181L180.983 32.8873L177.932 30.3455C177.511 29.995 176.879 29.995 176.459 30.3455C176.038 30.6961 176.038 31.222 176.459 31.5726L181.299 35.6043C181.72 35.9548 182.351 35.9548 182.772 35.6043L187.613 31.5726C188.034 31.222 188.034 30.6961 187.613 30.3455C187.192 29.995 186.561 29.995 186.14 30.3455L183.088 32.8873L183.088 21.3181C183.088 20.8799 182.667 20.4417 182.036 20.4417C181.404 20.4417 180.983 20.8799 180.983 21.3181Z" fill="#7A0000"/>
</svg>
