<svg width="45" height="48" viewBox="0 0 45 48" fill="none" xmlns="http://www.w3.org/2000/svg">
<path fill-rule="evenodd" clip-rule="evenodd" d="M5.28975 0H39.8226C42.2066 0 44.1392 2.14903 44.1392 4.8V43.2C44.1392 45.851 42.2066 48 39.8226 48H5.28975C2.90575 48 0.973145 45.851 0.973145 43.2V4.8C0.973145 2.14903 2.90575 0 5.28975 0ZM5.28963 4.8V43.2H39.8225V4.8H5.28963ZM24.7145 16.8C23.597 16.8 22.4164 17.1798 21.3737 17.8852L20.3979 16.8H18.2396V33.6H22.5562V24C22.5562 22.6182 23.8381 21.6 24.7145 21.6H26.8728C27.7491 21.6 29.0311 22.6182 29.0311 24V33.6H33.3477V24C33.3477 19.5532 29.8813 16.8 26.8728 16.8H24.7145ZM13.923 14.4C15.115 14.4 16.0813 13.3255 16.0813 12C16.0813 10.6745 15.115 9.6 13.923 9.6C12.731 9.6 11.7647 10.6745 11.7647 12C11.7647 13.3255 12.731 14.4 13.923 14.4ZM11.7647 33.6H16.0813V16.8H11.7647V33.6Z" fill="white"/>
</svg>
