<svg width="46" height="46" viewBox="0 0 46 46" fill="none" xmlns="http://www.w3.org/2000/svg">
<path fill-rule="evenodd" clip-rule="evenodd" d="M42.2118 6.01985L45.2652 6.41638L43.8927 9.4752C43.2233 10.9669 42.5533 12.4585 41.8827 13.9502C41.8031 14.2661 41.6634 14.5431 41.4566 14.9037C41.3703 15.0544 41.0752 15.5337 41.0614 15.5567C40.9835 15.6866 40.9258 15.7891 40.8844 15.8712V21.6037C40.8844 36.2724 28.118 45.5938 16.0618 45.5938C13.5948 45.5938 11.7204 45.4624 9.57417 44.9416C6.04212 44.0845 3.41358 42.3808 2.21075 39.4032L0.972399 36.3376L3.98189 36.0299C6.70441 35.7514 9.06491 35.1747 10.8777 34.4024C5.90101 33.5124 3.11212 31.0819 3.11212 26.5173V24.1173H5.27042C5.74462 24.1173 6.17221 24.0745 6.55449 23.996C2.81945 21.5127 0.948682 17.5291 0.948682 12.0037C0.948274 11.7681 0.948274 11.7681 0.947 11.5163C0.932969 8.73126 1.0675 7.24312 1.75314 5.34382C2.19256 4.12658 2.82772 2.99972 3.68255 1.9672L5.31123 0L6.8947 2.01232C12.113 8.64386 17.2713 12.6671 22.5381 13.1537C22.5606 7.03451 26.7195 2.40365 32.2508 2.40365C34.8294 2.40365 37.1684 3.49203 39.0066 5.45454C40.0126 5.68442 41.0811 5.87302 42.2118 6.01985ZM37.44 9.9887L36.7783 9.8221L36.3214 9.26452C35.2165 7.91638 33.8298 7.20352 32.2507 7.20352C29.0932 7.20352 26.8545 9.70524 26.8545 13.2035C26.8545 13.7752 26.8413 14.1345 26.7772 14.6066C26.5216 16.4907 25.5713 18.0035 23.617 18.0035C17.1464 18.0035 11.3088 14.1489 5.61635 7.56533C5.32288 8.55732 5.25387 9.577 5.2635 11.4893C5.2648 11.7451 5.2648 11.7451 5.26525 12.0035C5.26525 16.9187 7.05602 19.6073 11.2961 21.1059L12.8006 21.6377V23.3932C12.8006 25.5219 10.9869 27.5258 8.3332 28.4234C9.54968 29.4497 12.0375 30.0035 16.0625 30.0035H18.2208V32.4035C18.2208 35.8421 14.6677 38.5344 9.30026 39.9403C11.0507 40.5367 13.3814 40.7937 16.0618 40.7937C26.0211 40.7937 36.5677 33.093 36.5677 21.6035V15.6035C36.5677 14.8984 36.7515 14.2864 37.0569 13.6501C37.1763 13.4013 37.3077 13.1641 37.47 12.8936C37.5005 12.8426 37.6138 12.6581 37.7038 12.5106L37.8748 12.1302C38.152 11.5137 38.4291 10.8973 38.706 10.2809C38.2756 10.1902 37.8536 10.0929 37.44 9.9887Z" fill="white"/>
</svg>
